<?xml version="1.0" encoding="UTF-8"?>
<svg width="512" height="512" viewBox="0 0 512 512" xmlns="http://www.w3.org/2000/svg">
  <circle cx="256" cy="256" r="240" fill="#16A34A"/>
  <circle cx="256" cy="256" r="180" fill="#FFFFFF"/>
  <!-- Stripes -->
  <rect x="228" y="46" width="56" height="28" rx="8" ry="8" fill="#FFFFFF" transform="rotate(0,256,256)"/><rect x="228" y="46" width="56" height="28" rx="8" ry="8" fill="#FFFFFF" transform="rotate(30,256,256)"/><rect x="228" y="46" width="56" height="28" rx="8" ry="8" fill="#FFFFFF" transform="rotate(60,256,256)"/><rect x="228" y="46" width="56" height="28" rx="8" ry="8" fill="#FFFFFF" transform="rotate(90,256,256)"/><rect x="228" y="46" width="56" height="28" rx="8" ry="8" fill="#FFFFFF" transform="rotate(120,256,256)"/><rect x="228" y="46" width="56" height="28" rx="8" ry="8" fill="#FFFFFF" transform="rotate(150,256,256)"/><rect x="228" y="46" width="56" height="28" rx="8" ry="8" fill="#FFFFFF" transform="rotate(180,256,256)"/><rect x="228" y="46" width="56" height="28" rx="8" ry="8" fill="#FFFFFF" transform="rotate(210,256,256)"/><rect x="228" y="46" width="56" height="28" rx="8" ry="8" fill="#FFFFFF" transform="rotate(240,256,256)"/><rect x="228" y="46" width="56" height="28" rx="8" ry="8" fill="#FFFFFF" transform="rotate(270,256,256)"/><rect x="228" y="46" width="56" height="28" rx="8" ry="8" fill="#FFFFFF" transform="rotate(300,256,256)"/><rect x="228" y="46" width="56" height="28" rx="8" ry="8" fill="#FFFFFF" transform="rotate(330,256,256)"/>
  <!-- PP Monogram -->
  <text x="50%" y="60%" font-size="180" font-family="Arial, sans-serif" font-weight="bold" text-anchor="middle" fill="#16A34A">PP</text>
</svg>
